<?xml version="1.0" encoding="utf-8"?>
<!-- Generator: Adobe Illustrator 15.1.0, SVG Export Plug-In . SVG Version: 6.00 Build 0)  -->
<!DOCTYPE svg PUBLIC "-//W3C//DTD SVG 1.1//EN" "http://www.w3.org/Graphics/SVG/1.1/DTD/svg11.dtd">
<svg version="1.1" xmlns="http://www.w3.org/2000/svg" xmlns:xlink="http://www.w3.org/1999/xlink" x="0px" y="0px" width="600px"
	 height="250px" viewBox="0 0 600 250" enable-background="new 0 0 600 250" xml:space="preserve">
<g id="Layer_1">
	<g>
		<path fill="#161D6F" d="M262.467,87.368v82.439h-15.555l-0.887-6.889c-4.146,5.852-9.74,8.776-16.777,8.776
			c-7.333,0-12.904-2.813-16.719-8.444s-5.723-13.33-5.723-23.106c0-6,0.997-11.372,3.001-16.112c1.995-4.741,4.83-8.444,8.5-11.113
			c3.663-2.663,7.865-3.996,12.608-3.996c5.628,0,10.295,1.85,14.001,5.553V85.478L262.467,87.368z M244.917,152.14v-25.443
			c-1.41-1.702-2.835-2.961-4.282-3.777c-1.443-0.815-3.091-1.222-4.94-1.222c-3.261,0-5.853,1.521-7.779,4.556
			c-1.924,3.039-2.888,7.705-2.888,13.998c0,6.886,0.834,11.704,2.5,14.443c1.665,2.743,4.057,4.11,7.166,4.11
			C238.77,158.805,242.171,156.585,244.917,152.14z"/>
		<path fill="#161D6F" d="M327.353,145.475H290.8c0.591,4.959,1.998,8.444,4.221,10.442c2.223,1.998,5.295,3.001,9.223,3.001
			c2.367,0,4.667-0.425,6.887-1.277c2.223-0.853,4.63-2.167,7.222-3.947l7.222,9.777c-6.886,5.485-14.552,8.222-22.998,8.222
			c-9.556,0-16.885-2.813-21.995-8.444c-5.113-5.63-7.668-13.182-7.668-22.663c0-6,1.074-11.39,3.223-16.167
			c2.146-4.778,5.292-8.555,9.444-11.332c4.146-2.78,9.105-4.165,14.884-4.165c8.518,0,15.183,2.666,20,7.998
			c4.815,5.332,7.223,12.738,7.223,22.223C327.686,141.584,327.574,143.696,327.353,145.475z M310.462,134.144
			c-0.145-9.038-3.331-13.557-9.553-13.557c-3.035,0-5.39,1.111-7.056,3.334c-1.668,2.223-2.684,5.889-3.054,10.999h19.662V134.144z
			"/>
		<path fill="#161D6F" d="M384.124,113.586c2.891,3.112,4.331,7.483,4.331,13.111v43.109h-17.553v-40.108
			c0-2.964-0.465-5.018-1.389-6.169c-0.926-1.146-2.317-1.721-4.168-1.721c-3.552,0-6.963,2.555-10.22,7.668v40.33h-17.553V110.81
			h15.333l1.219,6.997c2.519-2.958,5.243-5.181,8.167-6.665c2.925-1.48,6.203-2.219,9.836-2.219
			C377.238,108.923,381.233,110.477,384.124,113.586z"/>
		<path fill="#161D6F" d="M456.108,87.368v82.439h-15.555l-0.89-6.889c-4.149,5.852-9.743,8.776-16.777,8.776
			c-7.329,0-12.907-2.813-16.722-8.444c-3.817-5.63-5.72-13.33-5.72-23.106c0-6,0.998-11.372,2.999-16.112s4.836-8.444,8.499-11.113
			c3.666-2.663,7.871-3.996,12.612-3.996c5.624,0,10.294,1.85,13.997,5.553V85.478L456.108,87.368z M438.553,152.14v-25.443
			c-1.41-1.702-2.832-2.961-4.275-3.777c-1.447-0.815-3.094-1.222-4.947-1.222c-3.257,0-5.849,1.521-7.773,4.556
			c-1.933,3.039-2.894,7.705-2.894,13.998c0,6.886,0.838,11.704,2.5,14.443c1.672,2.743,4.058,4.11,7.166,4.11
			C432.405,158.805,435.81,156.585,438.553,152.14z"/>
		<path fill="#161D6F" d="M507.771,109.923l-2.78,16.996c-2.223-0.517-3.996-0.776-5.335-0.776c-3.481,0-6.126,1.204-7.942,3.608
			c-1.815,2.41-3.238,6.018-4.275,10.836v29.22h-17.553V110.81h15.33l1.447,11.442c1.329-4.069,3.349-7.277,6.052-9.607
			c2.703-2.336,5.76-3.5,9.167-3.5C504.03,109.145,505.994,109.403,507.771,109.923z"/>
		<path fill="#161D6F" d="M562.504,117.2c5.113,5.517,7.668,13.237,7.668,23.165c0,6.295-1.17,11.793-3.5,16.497
			c-2.337,4.707-5.667,8.352-9.999,10.943c-4.334,2.592-9.463,3.888-15.389,3.888c-8.964,0-16.02-2.758-21.164-8.275
			c-5.152-5.52-7.724-13.24-7.724-23.167c0-6.292,1.164-11.793,3.497-16.497c2.337-4.704,5.671-8.352,10.002-10.944
			c4.334-2.592,9.46-3.888,15.389-3.888C550.319,108.923,557.394,111.681,562.504,117.2z M533.283,126.306
			c-1.775,3.001-2.665,7.653-2.665,13.945c0,6.446,0.868,11.146,2.61,14.111c1.736,2.964,4.424,4.442,8.056,4.442
			c3.556,0,6.222-1.496,7.998-4.498c1.779-3.001,2.666-7.646,2.666-13.942c0-6.443-0.872-11.15-2.61-14.111
			c-1.74-2.961-4.424-4.445-8.054-4.445C537.729,121.809,535.063,123.311,533.283,126.306z"/>
	</g>
	<g>
		<g id="XMLID_8_">
			<g>
				<path fill="#161D6F" d="M162.557,116.841c0.822,4.423,1.228,8.846,1.228,13.339c0,13.738-3.782,26.59-10.354,37.614
					c-0.065,0.124-0.13,0.247-0.212,0.37c-5.245,8.681-12.234,16.282-20.476,22.144c-0.188,0.153-0.37,0.394-0.593,0.499
					c-11.93,8.317-26.42,13.375-42.021,13.375H59.598c-0.018,0-0.018,0-0.018,0h-4.81c-8.124,0-14.696-6.961-14.696-15.084V71.221
					c0-5.116,2.602-9.574,6.578-12.199c0.042-0.029,0.071,0.006,0.112-0.006c2.296-1.51,5.045-2.261,8.006-2.261h35.359
					C125.617,56.754,156.084,81.952,162.557,116.841z M151.55,158.855c4.082-8.687,6.355-18.378,6.373-28.587
					C135.567,91.332,94.059,66.169,49.19,64.372c-1.979,1.615-3.242,4.088-3.242,6.849v10.755
					C94.105,82.81,136.12,113.752,151.55,158.855z M133.118,182.532c5.68-4.664,10.602-10.244,14.52-16.505
					c-13.045-45.574-54.701-77.309-101.69-78.178v17.715c21.732,0.47,42.367,8.675,58.507,23.307
					C120.038,142.973,130.088,161.863,133.118,182.532z M114.975,78.393c16.517,9.979,30.754,23.336,41.721,39.125
					c-6.121-31.906-34.044-54.889-66.566-54.889H76.726C90.17,65.559,103.092,71.203,114.975,78.393z M110.511,194.813
					c6.173-1.938,11.947-4.746,17.216-8.264c-4.57-41.768-40.082-74.12-81.779-75.112v17.709c0.582,0.012,0.758,0.018,1.14,0.036
					c17.767,0.852,34.131,8.552,46.102,21.714C104.249,163.055,110.322,178.521,110.511,194.813z M104.631,196.57
					c0.194-15.407-5.374-30.25-15.782-41.697c-10.913-12-25.832-19.054-42.032-19.823c-0.293-0.018-0.869-0.018-0.869-0.029v17.715
					c1.181,0.053,2.361,0.346,3.56,0.493c22.402,2.925,38.531,22.76,37.362,45.08h3.26C95.11,198.309,99.962,197.592,104.631,196.57
					z M80.996,198.309c1.162-19.383-12.805-36.716-32.252-39.259c-0.94-0.118-1.615-0.388-2.796-0.44v17.756
					c1.181,0.141,2.749,0.535,4.094,0.969c4.934,1.639,8.922,5.187,11.254,9.815c1.732,3.448,2.391,7.054,1.943,11.16H80.996z
					 M57.29,198.309c0.476-2.937,0.077-5.909-1.233-8.522c-1.627-3.23-4.423-5.833-7.865-6.966
					c-0.729-0.247-1.662-0.417-2.244-0.535v6.813c0,4.875,3.941,9.21,8.822,9.21H57.29z"/>
				<path fill="#C7FFD8" d="M157.923,130.269c-0.018,10.208-2.291,19.9-6.373,28.587c-15.43-45.104-57.444-76.046-105.602-76.88
					V71.221c0-2.76,1.263-5.233,3.242-6.849C94.059,66.169,135.567,91.332,157.923,130.269z"/>
				<path fill="#C7FFD8" d="M147.638,166.027c-3.918,6.261-8.84,11.841-14.52,16.505c-3.03-20.669-13.08-39.559-28.663-53.662
					c-16.141-14.631-36.775-22.836-58.507-23.307V87.849C92.937,88.718,134.593,120.454,147.638,166.027z"/>
				<path fill="#98DED9" d="M156.695,117.517c-10.967-15.789-25.204-29.145-41.721-39.125
					c-11.883-7.189-24.805-12.834-38.249-15.765h13.403C122.651,62.628,150.574,85.611,156.695,117.517z"/>
				<path fill="#C7FFD8" d="M127.727,186.55c-5.269,3.518-11.043,6.326-17.216,8.264c-0.188-16.293-6.262-31.758-17.321-43.917
					c-11.971-13.163-28.335-20.863-46.102-21.714c-0.382-0.018-0.558-0.024-1.14-0.036v-17.709
					C87.645,112.43,123.156,144.782,127.727,186.55z"/>
				<path fill="#C7FFD8" d="M88.849,154.873c10.408,11.448,15.977,26.291,15.782,41.697c-4.669,1.021-9.521,1.738-14.502,1.738
					h-3.26c1.169-22.32-14.96-42.155-37.362-45.08c-1.198-0.147-2.379-0.44-3.56-0.493v-17.715c0,0.012,0.576,0.012,0.869,0.029
					C63.017,135.819,77.936,142.874,88.849,154.873z"/>
				<path fill="#C7FFD8" d="M48.744,159.049c19.448,2.543,33.415,19.876,32.252,39.259H63.239c0.447-4.105-0.211-7.712-1.943-11.16
					c-2.332-4.628-6.32-8.176-11.254-9.815c-1.345-0.435-2.913-0.828-4.094-0.969v-17.756
					C47.128,158.662,47.804,158.932,48.744,159.049z"/>
				<path fill="#98DED9" d="M56.056,189.786c1.31,2.613,1.709,5.586,1.233,8.522h-2.52c-4.881,0-8.822-4.335-8.822-9.21v-6.813
					c0.582,0.118,1.515,0.288,2.244,0.535C51.633,183.954,54.429,186.556,56.056,189.786z"/>
			</g>
			<g>
			</g>
		</g>
		<path fill="#161D6F" d="M160.847,116.009c-6.508,0-11.787,5.282-11.787,11.79c0,1.164,0.175,2.287,0.489,3.349l-20.881,12.517
			c-2.13-2.099-5.048-3.398-8.277-3.398c-1.4,0-2.736,0.259-3.983,0.705L86.491,96.948c1.841-2.081,2.968-4.809,2.968-7.801
			c0-6.511-5.279-11.787-11.784-11.787c-6.514,0-11.787,5.276-11.787,11.787c0,2.248,0.641,4.344,1.728,6.126L47.873,119.66
			c-1.492-0.684-3.146-1.078-4.897-1.078c-6.508,0-11.787,5.283-11.787,11.787c0,6.514,5.279,11.79,11.787,11.79
			c6.511,0,11.787-5.276,11.787-11.79c0-2.626-0.871-5.048-2.331-7.009l19.416-23.975c1.721,0.979,3.703,1.548,5.827,1.548
			c1.389,0,2.715-0.252,3.953-0.695l29.925,44.036c-1.832,2.078-2.952,4.793-2.952,7.779c0,6.514,5.279,11.79,11.79,11.79
			s11.787-5.276,11.787-11.79c0-1.164-0.176-2.284-0.489-3.349l20.884-12.52c2.127,2.103,5.045,3.399,8.274,3.399
			c6.511,0,11.79-5.273,11.79-11.784C172.637,121.292,167.357,116.009,160.847,116.009z"/>
	</g>
</g>
<g id="Layer_2">
</g>
</svg>
